<svg id="Calque_1" data-name="Calque 1" xmlns="http://www.w3.org/2000/svg" width="266.8" height="93.1" viewBox="0 0 266.8 93.1">
  <defs>
    <style>
      .cls-1 {
        isolation: isolate;
      }

      .cls-2 {
        fill: #fff;
      }

      .cls-3 {
        fill: #f7c600;
      }
    </style>
  </defs>
  <g>
    <g>
      <g class="cls-1">
        <g class="cls-1">
          <path class="cls-2" d="M53.6,34a5.6,5.6,0,0,1,0-8,5.3,5.3,0,0,1,3.9-1.6,5.4,5.4,0,0,1,4,1.6,5.8,5.8,0,0,1,0,8,5.4,5.4,0,0,1-4,1.6A5.3,5.3,0,0,1,53.6,34Zm-.8,42.8v-36h9.4v36Z" transform="translate(0 -3)"/>
          <path class="cls-2" d="M70,65.9V26.4h9.3V63.8a6.7,6.7,0,0,0,.8,3.8,2.8,2.8,0,0,0,2.4,1.1,7.4,7.4,0,0,0,2.8-.5v8.6a12.7,12.7,0,0,1-4.6.7c-3.3,0-5.9-.9-7.8-2.8S70,69.9,70,65.9Z" transform="translate(0 -3)"/>
          <path class="cls-2" d="M99.1,54.5V76.8H89.6V54.5c0-4.7,1.3-8.3,4-10.8s6.4-3.8,11.4-3.8,8.6,1.6,10.7,4.6c2.2-3,5.7-4.6,10.6-4.6s9.1,1.2,11.5,3.6,3.8,6.1,3.8,11V76.8h-9.5V54.5a7.3,7.3,0,0,0-1.1-4.4c-.8-.9-2.4-1.3-4.7-1.3s-4.1.4-4.9,1.3a6.6,6.6,0,0,0-1.2,4.4V76.8H111V54.5a6.6,6.6,0,0,0-1.2-4.4c-.8-.9-2.4-1.3-4.8-1.3s-3.9.4-4.7,1.3A6.6,6.6,0,0,0,99.1,54.5Z" transform="translate(0 -3)"/>
        </g>
        <g class="cls-1">
          <path class="cls-2" d="M227.6,52.3V66.1c0,3.9-1.2,6.8-3.7,8.7s-6.5,2.9-11.9,2.9-9.4-1-11.9-2.9-3.7-4.7-3.7-8.5c0-7.5,4.9-11.2,14.6-11.2h7.3V52.3c0-2.9-2-4.4-5.9-4.4a7.3,7.3,0,0,0-4.2,1c-1,.6-1.5,1.8-1.5,3.5H198c0-8.3,4.8-12.5,14.4-12.5S227.6,44.1,227.6,52.3Zm-9.3,13.3V62.1h-7.4c-3.5,0-5.2,1.3-5.2,4a3.4,3.4,0,0,0,1,2.5,3.5,3.5,0,0,0,2.1,1,13.3,13.3,0,0,0,3.1.2l3.2-.2a3.7,3.7,0,0,0,2.2-1.2A4,4,0,0,0,218.3,65.6Z" transform="translate(0 -3)"/>
        </g>
        <g class="cls-1">
          <path class="cls-2" d="M239.9,40.8l5.6,25.7a4.5,4.5,0,0,0,1.1,2.5,4.1,4.1,0,0,0,2.3.5,2.3,2.3,0,0,0,1.6-.6,5.5,5.5,0,0,0,1-2.4l5.6-25.7h9.7l-8.2,36c-1.3,5.7-3.6,9.8-6.8,12.5s-7.4,4.1-12.7,4.1l-2-8.2c6.5,0,10.4-2.6,11.6-7.8a9.7,9.7,0,0,1-2.9.3c-3,0-5.1-.9-6.4-2.5a21.2,21.2,0,0,1-3.1-7.6l-6.1-26.8Z" transform="translate(0 -3)"/>
        </g>
      </g>
      <g class="cls-1">
        <path class="cls-2" d="M155.2,76.8,143.7,40.5H153l6.8,23.8,6.3-23.8h9.3l6,23.8,6.9-23.8h9.5L186.2,76.8h-9.3l-6.2-23.3-6.2,23.3Z" transform="translate(0 -3)"/>
      </g>
    </g>
    <path class="cls-3" d="M23.2,32.2V44.9H45.6V54H23.2V76.8H12.4V23.1H48.3V3L0,17.4V84.8L48.3,96.1V32.2Z" transform="translate(0 -3)"/>
  </g>
</svg>
